Nunito-Regular-master.ufo
<glyph name="three" format="1">
  <advance width="1214"/>
  <unicode hex="0033"/>
  <outline>
    <contour>
      <point x="581" y="-22" type="curve" smooth="yes"/>
      <point x="857" y="-22"/>
      <point x="1086" y="107"/>
      <point x="1086" y="392" type="curve" smooth="yes"/>
      <point x="1086" y="578"/>
      <point x="1009" y="711"/>
      <point x="836" y="765" type="curve"/>
      <point x="969" y="828"/>
      <point x="1057" y="922"/>
      <point x="1057" y="1089" type="curve" smooth="yes"/>
      <point x="1057" y="1340"/>
      <point x="835" y="1481"/>
      <point x="572" y="1481" type="curve" smooth="yes"/>
      <point x="419" y="1481"/>
      <point x="268" y="1441"/>
      <point x="187" y="1386" type="curve" smooth="yes"/>
      <point x="99" y="1327"/>
      <point x="198" y="1165"/>
      <point x="280" y="1210" type="curve" smooth="yes"/>
      <point x="368" y="1258"/>
      <point x="483" y="1269"/>
      <point x="553" y="1269" type="curve" smooth="yes"/>
      <point x="667" y="1269"/>
      <point x="793" y="1214"/>
      <point x="793" y="1068" type="curve" smooth="yes"/>
      <point x="793" y="918"/>
      <point x="662" y="848"/>
      <point x="505" y="848" type="curve" smooth="yes"/>
      <point x="425" y="848" type="line" smooth="yes"/>
      <point x="368" y="848"/>
      <point x="345" y="800"/>
      <point x="345" y="755" type="curve" smooth="yes"/>
      <point x="345" y="711"/>
      <point x="367" y="662"/>
      <point x="425" y="662" type="curve" smooth="yes"/>
      <point x="512" y="662" type="line" smooth="yes"/>
      <point x="684" y="662"/>
      <point x="821" y="559"/>
      <point x="821" y="401" type="curve" smooth="yes"/>
      <point x="821" y="251"/>
      <point x="714" y="190"/>
      <point x="557" y="190" type="curve" smooth="yes"/>
      <point x="438" y="190"/>
      <point x="349" y="229"/>
      <point x="290" y="256" type="curve" smooth="yes"/>
      <point x="204" y="295"/>
      <point x="94" y="123"/>
      <point x="213" y="62" type="curve" smooth="yes"/>
      <point x="297" y="19"/>
      <point x="412" y="-22"/>
    </contour>
  </outline>
</glyph>
<glyph name="four" format="1">
  <advance width="1214"/>
  <unicode hex="0034"/>
  <outline>
    <contour>
      <point x="857" y="-4" type="curve" smooth="yes"/>
      <point x="917" y="-4"/>
      <point x="981" y="36"/>
      <point x="981" y="112" type="curve" smooth="yes"/>
      <point x="981" y="293" type="line"/>
      <point x="1103" y="293" type="line" smooth="yes"/>
      <point x="1164" y="293"/>
      <point x="1194" y="340"/>
      <point x="1194" y="385" type="curve" smooth="yes"/>
      <point x="1194" y="432"/>
      <point x="1164" y="478"/>
      <point x="1103" y="478" type="curve" smooth="yes"/>
      <point x="982" y="478" type="line"/>
      <point x="982" y="1258" type="line" smooth="yes"/>
      <point x="982" y="1386"/>
      <point x="896" y="1437"/>
      <point x="800" y="1437" type="curve" smooth="yes"/>
      <point x="711" y="1437"/>
      <point x="643" y="1402"/>
      <point x="584" y="1306" type="curve" smooth="yes"/>
      <point x="75" y="480" type="line" smooth="yes"/>
      <point x="37" y="419"/>
      <point x="80" y="293"/>
      <point x="179" y="293" type="curve" smooth="yes"/>
      <point x="731" y="293" type="line"/>
      <point x="731" y="112" type="line" smooth="yes"/>
      <point x="731" y="36"/>
      <point x="797" y="-4"/>
    </contour>
    <contour>
      <point x="316" y="478" type="line"/>
      <point x="731" y="1173" type="line"/>
      <point x="731" y="478" type="line"/>
    </contour>
  </outline>
</glyph>
<glyph name="six" format="1">
  <advance width="1214"/>
  <unicode hex="0036"/>
  <outline>
    <contour>
      <point x="636" y="-22" type="curve" smooth="yes"/>
      <point x="952" y="-22"/>
      <point x="1151" y="174"/>
      <point x="1151" y="454" type="curve" smooth="yes"/>
      <point x="1151" y="726"/>
      <point x="951" y="909"/>
      <point x="676" y="909" type="curve" smooth="yes"/>
      <point x="525" y="909"/>
      <point x="389" y="853"/>
      <point x="351" y="767" type="curve" smooth="yes"/>
      <point x="351" y="1049"/>
      <point x="399" y="1269"/>
      <point x="690" y="1269" type="curve" smooth="yes"/>
      <point x="765" y="1269"/>
      <point x="853" y="1248"/>
      <point x="944" y="1211" type="curve" smooth="yes"/>
      <point x="1038" y="1173"/>
      <point x="1112" y="1366"/>
      <point x="1014" y="1409" type="curve" smooth="yes"/>
      <point x="918" y="1454"/>
      <point x="805" y="1481"/>
      <point x="697" y="1481" type="curve" smooth="yes"/>
      <point x="198" y="1481"/>
      <point x="76" y="1096"/>
      <point x="76" y="642" type="curve" smooth="yes"/>
      <point x="76" y="281"/>
      <point x="224" y="-22"/>
    </contour>
    <contour>
      <point x="625" y="185" type="curve" smooth="yes"/>
      <point x="468" y="185"/>
      <point x="364" y="281"/>
      <point x="364" y="441" type="curve" smooth="yes"/>
      <point x="364" y="621"/>
      <point x="465" y="727"/>
      <point x="650" y="724" type="curve" smooth="yes"/>
      <point x="822" y="721"/>
      <point x="896" y="607"/>
      <point x="896" y="447" type="curve" smooth="yes"/>
      <point x="896" y="271"/>
      <point x="798" y="185"/>
    </contour>
  </outline>
</glyph>
<glyph name="seven" format="1">
  <advance width="1214"/>
  <unicode hex="0037"/>
  <outline>
    <contour>
      <point x="477" y="0" type="curve" smooth="yes"/>
      <point x="521" y="0"/>
      <point x="568" y="22"/>
      <point x="591" y="74" type="curve" smooth="yes"/>
      <point x="1083" y="1203" type="line" smooth="yes"/>
      <point x="1100" y="1242"/>
      <point x="1109" y="1286"/>
      <point x="1109" y="1318" type="curve" smooth="yes"/>
      <point x="1109" y="1387"/>
      <point x="1065" y="1436"/>
      <point x="968" y="1436" type="curve" smooth="yes"/>
      <point x="199" y="1436" type="line" smooth="yes"/>
      <point x="132" y="1436"/>
      <point x="100" y="1381"/>
      <point x="100" y="1332" type="curve" smooth="yes"/>
      <point x="100" y="1282"/>
      <point x="132" y="1227"/>
      <point x="199" y="1227" type="curve" smooth="yes"/>
      <point x="816" y="1227" type="line"/>
      <point x="356" y="179" type="line" smooth="yes"/>
      <point x="347" y="158"/>
      <point x="340" y="138"/>
      <point x="341" y="120" type="curve"/>
      <point x="341" y="49"/>
      <point x="410" y="0"/>
    </contour>
  </outline>
</glyph>
<glyph name="nine" format="1">
  <advance width="1214"/>
  <unicode hex="0039"/>
  <outline>
    <contour>
      <point x="520" y="-22" type="curve" smooth="yes"/>
      <point x="1019" y="-22"/>
      <point x="1141" y="363"/>
      <point x="1141" y="817" type="curve" smooth="yes"/>
      <point x="1141" y="1178"/>
      <point x="993" y="1481"/>
      <point x="581" y="1481" type="curve" smooth="yes"/>
      <point x="265" y="1481"/>
      <point x="66" y="1285"/>
      <point x="66" y="1005" type="curve" smooth="yes"/>
      <point x="66" y="733"/>
      <point x="266" y="550"/>
      <point x="541" y="550" type="curve" smooth="yes"/>
      <point x="692" y="550"/>
      <point x="828" y="606"/>
      <point x="866" y="692" type="curve" smooth="yes"/>
      <point x="866" y="410"/>
      <point x="818" y="190"/>
      <point x="527" y="190" type="curve" smooth="yes"/>
      <point x="452" y="190"/>
      <point x="364" y="211"/>
      <point x="273" y="248" type="curve" smooth="yes"/>
      <point x="179" y="286"/>
      <point x="105" y="93"/>
      <point x="203" y="50" type="curve" smooth="yes"/>
      <point x="299" y="5"/>
      <point x="412" y="-22"/>
    </contour>
    <contour>
      <point x="567" y="735" type="curve" smooth="yes"/>
      <point x="395" y="738"/>
      <point x="321" y="852"/>
      <point x="321" y="1012" type="curve" smooth="yes"/>
      <point x="321" y="1188"/>
      <point x="419" y="1274"/>
      <point x="592" y="1274" type="curve" smooth="yes"/>
      <point x="749" y="1274"/>
      <point x="853" y="1178"/>
      <point x="853" y="1018" type="curve" smooth="yes"/>
      <point x="853" y="838"/>
      <point x="752" y="732"/>
    </contour>
  </outline>
</glyph>
<glyph name="question" format="1">
  <advance width="1047"/>
  <unicode hex="003F"/>
  <outline>
    <contour>
      <point x="314" y="463" type="line" smooth="yes"/>
      <point x="314" y="331"/>
      <point x="534" y="337"/>
      <point x="534" y="459" type="curve" smooth="yes"/>
      <point x="534" y="542" type="line" smooth="yes"/>
      <point x="534" y="690.253"/>
      <point x="927" y="778.638"/>
      <point x="927" y="1134" type="curve" smooth="yes"/>
      <point x="927" y="1394"/>
      <point x="726" y="1512"/>
      <point x="489" y="1512" type="curve" smooth="yes"/>
      <point x="393" y="1512"/>
      <point x="289" y="1503"/>
      <point x="189" y="1476" type="curve" smooth="yes"/>
      <point x="130" y="1460"/>
      <point x="107" y="1416"/>
      <point x="107" y="1375" type="curve" smooth="yes"/>
      <point x="107" y="1325"/>
      <point x="155" y="1267"/>
      <point x="207" y="1280" type="curve" smooth="yes"/>
      <point x="286" y="1300"/>
      <point x="389" y="1306"/>
      <point x="431" y="1306" type="curve" smooth="yes"/>
      <point x="548" y="1306"/>
      <point x="659" y="1258"/>
      <point x="659" y="1106" type="curve" smooth="yes"/>
      <point x="659" y="883"/>
      <point x="314" y="790"/>
      <point x="314" y="578" type="curve" smooth="yes"/>
    </contour>
    <contour>
      <point x="426" y="-33" type="curve" smooth="yes"/>
      <point x="510" y="-33"/>
      <point x="563" y="28"/>
      <point x="563" y="97" type="curve" smooth="yes"/>
      <point x="563" y="164"/>
      <point x="510" y="224"/>
      <point x="426" y="224" type="curve" smooth="yes"/>
      <point x="343" y="224"/>
      <point x="290" y="164"/>
      <point x="290" y="97" type="curve" smooth="yes"/>
      <point x="290" y="28"/>
      <point x="343" y="-33"/>
    </contour>
  </outline>
</glyph>
<glyph name="A" format="1">
  <advance width="1463"/>
  <unicode hex="0041"/>
  <outline>
    <contour>
      <point x="312" y="75" type="curve" smooth="yes"/>
      <point x="734" y="1190" type="line"/>
      <point x="734" y="1452" type="line"/>
      <point x="654" y="1452"/>
      <point x="582" y="1434"/>
      <point x="527" y="1297" type="curve" smooth="yes"/>
      <point x="68" y="146" type="line" smooth="yes"/>
      <point x="12" y="5"/>
      <point x="253" y="-82"/>
    </contour>
    <contour>
      <point x="1156" y="75" type="line" smooth="yes"/>
      <point x="1215" y="-82"/>
      <point x="1456" y="5"/>
      <point x="1400" y="146" type="curve" smooth="yes"/>
      <point x="941" y="1297" type="line" smooth="yes"/>
      <point x="886" y="1434"/>
      <point x="814" y="1452"/>
      <point x="734" y="1452" type="curve"/>
      <point x="734" y="1190" type="line"/>
    </contour>
    <contour>
      <point x="286" y="332" type="line"/>
      <point x="1187" y="332" type="line"/>
      <point x="1113" y="520" type="line"/>
      <point x="355" y="520" type="line"/>
    </contour>
    <contour>
      <point x="1266" y="19" type="move" name="ogonek"/>
    </contour>
    <contour>
      <point x="731" y="1438" type="move" name="top"/>
    </contour>
  </outline>
</glyph>
<glyph name="C" format="1">
  <advance width="1354"/>
  <unicode hex="0043"/>
  <outline>
    <contour>
      <point x="787" y="-22" type="curve" smooth="yes"/>
      <point x="986" y="-22"/>
      <point x="1106" y="24"/>
      <point x="1208" y="88" type="curve" smooth="yes"/>
      <point x="1322" y="160"/>
      <point x="1232" y="331"/>
      <point x="1124" y="275" type="curve" smooth="yes"/>
      <point x="1048" y="236"/>
      <point x="960" y="190"/>
      <point x="836" y="190" type="curve" smooth="yes"/>
      <point x="548" y="190"/>
      <point x="391" y="387"/>
      <point x="391" y="728" type="curve" smooth="yes"/>
      <point x="391" y="1068"/>
      <point x="546" y="1269"/>
      <point x="825" y="1269" type="curve" smooth="yes"/>
      <point x="970" y="1269"/>
      <point x="1054" y="1214"/>
      <point x="1107" y="1193" type="curve" smooth="yes"/>
      <point x="1209" y="1153"/>
      <point x="1321" y="1320"/>
      <point x="1179" y="1392" type="curve" smooth="yes"/>
      <point x="1056" y="1456"/>
      <point x="934" y="1481"/>
      <point x="813" y="1481" type="curve" smooth="yes"/>
      <point x="410" y="1481"/>
      <point x="110" y="1191"/>
      <point x="110" y="723" type="curve" smooth="yes"/>
      <point x="110" y="280"/>
      <point x="393" y="-22"/>
    </contour>
    <contour>
      <point x="779" y="0" type="move" name="bot"/>
    </contour>
    <contour>
      <point x="783" y="1438" type="move" name="top"/>
    </contour>
  </outline>
</glyph>
<glyph name="D" format="1">
  <advance width="1535"/>
  <unicode hex="0044"/>
  <outline>
    <contour>
      <point x="306" y="0" type="curve" smooth="yes"/>
      <point x="672" y="0" type="line" smooth="yes"/>
      <point x="1148" y="0"/>
      <point x="1429" y="252"/>
      <point x="1429" y="713" type="curve" smooth="yes"/>
      <point x="1429" y="1177"/>
      <point x="1168" y="1438"/>
      <point x="651" y="1438" type="curve" smooth="yes"/>
      <point x="306" y="1438" type="line" smooth="yes"/>
      <point x="233" y="1438"/>
      <point x="173" y="1379"/>
      <point x="173" y="1307" type="curve" smooth="yes"/>
      <point x="173" y="130" type="line" smooth="yes"/>
      <point x="173" y="58"/>
      <point x="233" y="0"/>
    </contour>
    <contour>
      <point x="439" y="211" type="line"/>
      <point x="439" y="1226" type="line"/>
      <point x="661" y="1226" type="line" smooth="yes"/>
      <point x="995" y="1226"/>
      <point x="1153" y="1093"/>
      <point x="1153" y="718" type="curve" smooth="yes"/>
      <point x="1153" y="374"/>
      <point x="1043" y="211"/>
      <point x="689" y="211" type="curve" smooth="yes"/>
    </contour>
    <contour>
      <point x="746" y="1438" type="move" name="top"/>
    </contour>
  </outline>
</glyph>
<glyph name="G" format="1">
  <advance width="1492"/>
  <unicode hex="0047"/>
  <outline>
    <contour>
      <point x="831" y="-22" type="curve" smooth="yes"/>
      <point x="991" y="-22"/>
      <point x="1150" y="16"/>
      <point x="1274" y="47" type="curve" smooth="yes"/>
      <point x="1340" y="64"/>
      <point x="1382" y="101"/>
      <point x="1382" y="188" type="curve" smooth="yes"/>
      <point x="1382" y="660" type="line" smooth="yes"/>
      <point x="1382" y="731"/>
      <point x="1348" y="780"/>
      <point x="1277" y="780" type="curve" smooth="yes"/>
      <point x="888" y="780" type="line" smooth="yes"/>
      <point x="831" y="780"/>
      <point x="803" y="721"/>
      <point x="803" y="678" type="curve" smooth="yes"/>
      <point x="803" y="635"/>
      <point x="831" y="578"/>
      <point x="888" y="578" type="curve" smooth="yes"/>
      <point x="1116" y="578" type="line"/>
      <point x="1116" y="223" type="line"/>
      <point x="1028" y="202"/>
      <point x="936" y="190"/>
      <point x="844" y="190" type="curve" smooth="yes"/>
      <point x="546" y="190"/>
      <point x="391" y="377"/>
      <point x="391" y="737" type="curve" smooth="yes"/>
      <point x="391" y="1048"/>
      <point x="516" y="1269"/>
      <point x="855" y="1269" type="curve" smooth="yes"/>
      <point x="989" y="1269"/>
      <point x="1099" y="1236"/>
      <point x="1209" y="1209" type="curve"/>
      <point x="1218" y="1206"/>
      <point x="1228" y="1205"/>
      <point x="1236" y="1205" type="curve" smooth="yes"/>
      <point x="1296" y="1205"/>
      <point x="1331" y="1265"/>
      <point x="1331" y="1316" type="curve" smooth="yes"/>
      <point x="1331" y="1352"/>
      <point x="1312" y="1388"/>
      <point x="1268" y="1407" type="curve" smooth="yes"/>
      <point x="1149" y="1456"/>
      <point x="1005" y="1481"/>
      <point x="847" y="1481" type="curve" smooth="yes"/>
      <point x="350" y="1481"/>
      <point x="110" y="1144"/>
      <point x="110" y="729" type="curve" smooth="yes"/>
      <point x="110" y="247"/>
      <point x="396" y="-22"/>
    </contour>
    <contour>
      <point x="824" y="0" type="move" name="bot"/>
    </contour>
    <contour>
      <point x="812" y="1438" type="move" name="top"/>
    </contour>
  </outline>
</glyph>
<glyph name="H" format="1">
  <advance width="1524"/>
  <unicode hex="0048"/>
  <outline>
    <contour>
      <point x="305" y="2" type="curve" smooth="yes"/>
      <point x="373" y="2"/>
      <point x="439" y="45"/>
      <point x="439" y="131" type="curve" smooth="yes"/>
      <point x="439" y="639" type="line"/>
      <point x="1085" y="639" type="line"/>
      <point x="1085" y="131" type="line" smooth="yes"/>
      <point x="1085" y="45"/>
      <point x="1151" y="2"/>
      <point x="1218" y="2" type="curve" smooth="yes"/>
      <point x="1286" y="2"/>
      <point x="1351" y="45"/>
      <point x="1351" y="131" type="curve" smooth="yes"/>
      <point x="1351" y="1307" type="line" smooth="yes"/>
      <point x="1351" y="1393"/>
      <point x="1286" y="1436"/>
      <point x="1219" y="1436" type="curve" smooth="yes"/>
      <point x="1151" y="1436"/>
      <point x="1085" y="1392"/>
      <point x="1085" y="1307" type="curve" smooth="yes"/>
      <point x="1085" y="851" type="line"/>
      <point x="439" y="851" type="line"/>
      <point x="439" y="1307" type="line" smooth="yes"/>
      <point x="439" y="1393"/>
      <point x="373" y="1436"/>
      <point x="306" y="1436" type="curve" smooth="yes"/>
      <point x="238" y="1436"/>
      <point x="173" y="1392"/>
      <point x="173" y="1307" type="curve" smooth="yes"/>
      <point x="173" y="131" type="line" smooth="yes"/>
      <point x="173" y="45"/>
      <point x="238" y="2"/>
    </contour>
    <contour>
      <point x="767" y="1438" type="move" name="top"/>
    </contour>
  </outline>
</glyph>
<glyph name="J" format="1">
  <advance width="1058"/>
  <unicode hex="004A"/>
  <outline>
    <contour>
      <point x="444" y="-31" type="curve" smooth="yes"/>
      <point x="703" y="-31"/>
      <point x="909" y="102"/>
      <point x="909" y="443" type="curve" smooth="yes"/>
      <point x="909" y="1310" type="line" smooth="yes"/>
      <point x="909" y="1395"/>
      <point x="844" y="1438"/>
      <point x="777" y="1438" type="curve" smooth="yes"/>
      <point x="709" y="1438"/>
      <point x="643" y="1395"/>
      <point x="643" y="1310" type="curve" smooth="yes"/>
      <point x="643" y="461" type="line" smooth="yes"/>
      <point x="643" y="257"/>
      <point x="574" y="190"/>
      <point x="426" y="190" type="curve" smooth="yes"/>
      <point x="350" y="190"/>
      <point x="274" y="218"/>
      <point x="207" y="247" type="curve" smooth="yes"/>
      <point x="193" y="253"/>
      <point x="180" y="256"/>
      <point x="167" y="256" type="curve" smooth="yes"/>
      <point x="109" y="256"/>
      <point x="69" y="195"/>
      <point x="69" y="136" type="curve" smooth="yes"/>
      <point x="69" y="131"/>
      <point x="69" y="127"/>
      <point x="70" y="122" type="curve"/>
      <point x="74" y="86"/>
      <point x="93" y="53"/>
      <point x="133" y="34" type="curve" smooth="yes"/>
      <point x="218" y="-4"/>
      <point x="280" y="-31"/>
    </contour>
    <contour>
      <point x="775" y="1438" type="move" name="top"/>
    </contour>
  </outline>
</glyph>
<glyph name="L" format="1">
  <advance width="1129"/>
  <unicode hex="004C"/>
  <outline>
    <contour>
      <point x="308" y="0" type="curve" smooth="yes"/>
      <point x="1020" y="0" type="line" smooth="yes"/>
      <point x="1087" y="0"/>
      <point x="1121" y="54"/>
      <point x="1121" y="105" type="curve" smooth="yes"/>
      <point x="1121" y="155"/>
      <point x="1087" y="211"/>
      <point x="1020" y="211" type="curve" smooth="yes"/>
      <point x="439" y="211" type="line"/>
      <point x="439" y="1307" type="line" smooth="yes"/>
      <point x="439" y="1393"/>
      <point x="374" y="1436"/>
      <point x="307" y="1436" type="curve" smooth="yes"/>
      <point x="239" y="1436"/>
      <point x="173" y="1393"/>
      <point x="173" y="1307" type="curve" smooth="yes"/>
      <point x="173" y="133" type="line" smooth="yes"/>
      <point x="173" y="59"/>
      <point x="236" y="0"/>
    </contour>
    <contour>
      <point x="674" y="0" type="move" name="bot"/>
    </contour>
    <contour>
      <point x="586" y="1438" type="move" name="top"/>
    </contour>
  </outline>
</glyph>
<glyph name="M" format="1">
  <advance width="1924"/>
  <unicode hex="004D"/>
  <outline>
    <contour>
      <point x="953" y="48" type="curve"/>
      <point x="953" y="373" type="line"/>
      <point x="590" y="1241" type="line" smooth="yes"/>
      <point x="495" y="1468"/>
      <point x="173" y="1406"/>
      <point x="173" y="1222" type="curve" smooth="yes"/>
      <point x="173" y="116" type="line" smooth="yes"/>
      <point x="173" y="-1"/>
      <point x="419" y="-1"/>
      <point x="419" y="116" type="curve" smooth="yes"/>
      <point x="419" y="1089" type="line"/>
      <point x="801" y="163" type="line" smooth="yes"/>
      <point x="832" y="88"/>
      <point x="894" y="48"/>
    </contour>
    <contour>
      <point x="954" y="48" type="line"/>
      <point x="1013" y="48"/>
      <point x="1075" y="88"/>
      <point x="1106" y="163" type="curve" smooth="yes"/>
      <point x="1488" y="1089" type="line"/>
      <point x="1488" y="116" type="line" smooth="yes"/>
      <point x="1488" y="-1"/>
      <point x="1734" y="-1"/>
      <point x="1734" y="116" type="curve" smooth="yes"/>
      <point x="1734" y="1222" type="line" smooth="yes"/>
      <point x="1734" y="1406"/>
      <point x="1412" y="1468"/>
      <point x="1317" y="1241" type="curve" smooth="yes"/>
      <point x="954" y="373" type="line"/>
    </contour>
    <contour>
      <point x="976" y="1438" type="move" name="top"/>
    </contour>
  </outline>
</glyph>
<glyph name="O" format="1">
  <advance width="1604"/>
  <unicode hex="004F"/>
  <outline>
    <contour>
      <point x="802" y="190" type="curve" smooth="yes"/>
      <point x="517" y="190"/>
      <point x="385" y="409"/>
      <point x="385" y="729" type="curve" smooth="yes"/>
      <point x="385" y="1046"/>
      <point x="516" y="1269"/>
      <point x="802" y="1269" type="curve" smooth="yes"/>
      <point x="1088" y="1269"/>
      <point x="1219" y="1046"/>
      <point x="1219" y="729" type="curve" smooth="yes"/>
      <point x="1219" y="409"/>
      <point x="1086" y="190"/>
    </contour>
    <contour>
      <point x="802" y="-22" type="curve" smooth="yes"/>
      <point x="1253" y="-22"/>
      <point x="1500" y="282"/>
      <point x="1500" y="729" type="curve" smooth="yes"/>
      <point x="1500" y="1177"/>
      <point x="1253" y="1481"/>
      <point x="802" y="1481" type="curve" smooth="yes"/>
      <point x="354" y="1481"/>
      <point x="104" y="1177"/>
      <point x="104" y="729" type="curve" smooth="yes"/>
      <point x="104" y="282"/>
      <point x="354" y="-22"/>
    </contour>
    <contour>
      <point x="805.0" y="1438.0" type="move" name="top"/>
    </contour>
  </outline>
</glyph>
<glyph name="R" format="1">
  <advance width="1408"/>
  <unicode hex="0052"/>
  <outline>
    <contour>
      <point x="305" y="2" type="curve" smooth="yes"/>
      <point x="371" y="2"/>
      <point x="439" y="44"/>
      <point x="439" y="129" type="curve" smooth="yes"/>
      <point x="439" y="627" type="line"/>
      <point x="715" y="627" type="line" smooth="yes"/>
      <point x="914" y="628"/>
      <point x="956" y="559"/>
      <point x="975" y="381" type="curve" smooth="yes"/>
      <point x="1003" y="117" type="line" smooth="yes"/>
      <point x="1011" y="39"/>
      <point x="1083" y="2"/>
      <point x="1145" y="2" type="curve" smooth="yes"/>
      <point x="1211" y="2"/>
      <point x="1280" y="50"/>
      <point x="1271" y="130" type="curve" smooth="yes"/>
      <point x="1240" y="401" type="line" smooth="yes"/>
      <point x="1221" y="570"/>
      <point x="1135" y="698"/>
      <point x="949" y="739" type="curve"/>
      <point x="949" y="743" type="line"/>
      <point x="1172" y="778"/>
      <point x="1275" y="910"/>
      <point x="1275" y="1071" type="curve" smooth="yes"/>
      <point x="1275" y="1364"/>
      <point x="1024" y="1438"/>
      <point x="756" y="1438" type="curve" smooth="yes"/>
      <point x="306" y="1438" type="line" smooth="yes"/>
      <point x="233" y="1438"/>
      <point x="173" y="1379"/>
      <point x="173" y="1307" type="curve" smooth="yes"/>
      <point x="173" y="129" type="line" smooth="yes"/>
      <point x="173" y="44"/>
      <point x="239" y="2"/>
    </contour>
    <contour>
      <point x="439" y="831" type="line"/>
      <point x="439" y="1227" type="line"/>
      <point x="706" y="1227" type="line" smooth="yes"/>
      <point x="843" y="1227"/>
      <point x="1007" y="1236"/>
      <point x="1007" y="1037" type="curve" smooth="yes"/>
      <point x="1007" y="835"/>
      <point x="820" y="831"/>
      <point x="655" y="831" type="curve" smooth="yes"/>
    </contour>
    <contour>
      <point x="759" y="0" type="move" name="bot"/>
    </contour>
    <contour>
      <point x="676" y="1438" type="move" name="top"/>
    </contour>
  </outline>
</glyph>
<glyph name="Y" format="1">
  <advance width="1302"/>
  <unicode hex="0059"/>
  <outline>
    <contour>
      <point x="514" y="130" type="line" smooth="yes"/>
      <point x="514" y="-43"/>
      <point x="780" y="-42"/>
      <point x="780" y="129" type="curve" smooth="yes"/>
      <point x="780" y="592" type="line"/>
      <point x="1213" y="1282" type="line" smooth="yes"/>
      <point x="1296" y="1414"/>
      <point x="1093" y="1505"/>
      <point x="1019" y="1383" type="curve" smooth="yes"/>
      <point x="661" y="789" type="line"/>
      <point x="315" y="1367" type="line" smooth="yes"/>
      <point x="222" y="1522"/>
      <point x="8" y="1383"/>
      <point x="85" y="1261" type="curve" smooth="yes"/>
      <point x="514" y="582" type="line"/>
    </contour>
    <contour>
      <point x="660" y="1438" type="move" name="top"/>
    </contour>
  </outline>
</glyph>
<glyph name="Z" format="1">
  <advance width="1196"/>
  <unicode hex="005A"/>
  <outline>
    <contour>
      <point x="208" y="0" type="curve" smooth="yes"/>
      <point x="1045" y="0" type="line" smooth="yes"/>
      <point x="1112" y="0"/>
      <point x="1144" y="57"/>
      <point x="1144" y="106" type="curve" smooth="yes"/>
      <point x="1144" y="156"/>
      <point x="1112" y="211"/>
      <point x="1045" y="211" type="curve" smooth="yes"/>
      <point x="401" y="211" type="line"/>
      <point x="1123" y="1252" type="line" smooth="yes"/>
      <point x="1142" y="1279"/>
      <point x="1150" y="1305"/>
      <point x="1150" y="1332" type="curve" smooth="yes"/>
      <point x="1150" y="1391"/>
      <point x="1106" y="1438"/>
      <point x="1035" y="1438" type="curve" smooth="yes"/>
      <point x="192" y="1438" type="line" smooth="yes"/>
      <point x="125" y="1438"/>
      <point x="93" y="1383"/>
      <point x="93" y="1333" type="curve" smooth="yes"/>
      <point x="93" y="1284"/>
      <point x="125" y="1226"/>
      <point x="192" y="1226" type="curve" smooth="yes"/>
      <point x="824" y="1226" type="line"/>
      <point x="106" y="187" type="line" smooth="yes"/>
      <point x="89" y="162"/>
      <point x="80" y="136"/>
      <point x="80" y="109" type="curve" smooth="yes"/>
      <point x="80" y="52"/>
      <point x="120" y="0"/>
    </contour>
    <contour>
      <point x="646" y="1438" type="move" name="top"/>
    </contour>
  </outline>
</glyph>
<glyph name="a" format="1">
  <advance width="1068"/>
  <unicode hex="0061"/>
  <outline>
    <contour>
      <point x="422" y="-12" type="curve" smooth="yes"/>
      <point x="602" y="-12"/>
      <point x="673" y="88"/>
      <point x="705" y="151" type="curve"/>
      <point x="705" y="113" type="line" smooth="yes"/>
      <point x="705" y="-36"/>
      <point x="934" y="-38"/>
      <point x="934" y="113" type="curve" smooth="yes"/>
      <point x="934" y="648" type="line" smooth="yes"/>
      <point x="934" y="912"/>
      <point x="762" y="1013"/>
      <point x="529" y="1013" type="curve" smooth="yes"/>
      <point x="360" y="1013"/>
      <point x="245" y="973"/>
      <point x="163" y="935" type="curve" smooth="yes"/>
      <point x="75" y="894"/>
      <point x="144" y="756"/>
      <point x="230" y="788" type="curve" smooth="yes"/>
      <point x="292" y="811"/>
      <point x="399" y="857"/>
      <point x="519" y="857" type="curve" smooth="yes"/>
      <point x="636" y="857"/>
      <point x="699" y="801"/>
      <point x="699" y="666" type="curve" smooth="yes"/>
      <point x="699" y="585" type="line"/>
      <point x="267" y="585"/>
      <point x="70" y="564"/>
      <point x="70" y="275" type="curve" smooth="yes"/>
      <point x="70" y="84"/>
      <point x="226" y="-12"/>
    </contour>
    <contour>
      <point x="442" y="139" type="curve" smooth="yes"/>
      <point x="358" y="139"/>
      <point x="290" y="181"/>
      <point x="292" y="289" type="curve" smooth="yes"/>
      <point x="295" y="437"/>
      <point x="382" y="454"/>
      <point x="698" y="454" type="curve"/>
      <point x="698" y="429" type="line" smooth="yes"/>
      <point x="698" y="254"/>
      <point x="570" y="139"/>
    </contour>
    <contour>
      <point x="794" y="28" type="move" name="ogonek"/>
    </contour>
    <contour>
      <point x="556" y="1001" type="move" name="top"/>
    </contour>
  </outline>
</glyph>
<glyph name="e" format="1">
  <advance width="1086"/>
  <unicode hex="0065"/>
  <outline>
    <contour>
      <point x="592" y="-12" type="curve" smooth="yes"/>
      <point x="745" y="-13"/>
      <point x="862" y="35"/>
      <point x="956" y="115" type="curve" smooth="yes"/>
      <point x="1039" y="184"/>
      <point x="954" y="305"/>
      <point x="879" y="253" type="curve" smooth="yes"/>
      <point x="805" y="202"/>
      <point x="713" y="149"/>
      <point x="610" y="149" type="curve" smooth="yes"/>
      <point x="441" y="149"/>
      <point x="327" y="231"/>
      <point x="315" y="444" type="curve"/>
      <point x="960" y="444" type="line" smooth="yes"/>
      <point x="1008" y="444"/>
      <point x="1025" y="486"/>
      <point x="1025" y="533" type="curve"/>
      <point x="1021" y="788"/>
      <point x="880" y="1013"/>
      <point x="566" y="1013" type="curve" smooth="yes"/>
      <point x="254" y="1013"/>
      <point x="80" y="777"/>
      <point x="80" y="512" type="curve" smooth="yes"/>
      <point x="80" y="183"/>
      <point x="287" y="-10"/>
    </contour>
    <contour>
      <point x="317" y="584" type="line"/>
      <point x="328" y="713"/>
      <point x="407" y="855"/>
      <point x="574" y="855" type="curve" smooth="yes"/>
      <point x="743" y="855"/>
      <point x="813" y="721"/>
      <point x="824" y="584" type="curve"/>
    </contour>
    <contour>
      <point x="776" y="46" type="move" name="ogonek"/>
    </contour>
    <contour>
      <point x="570" y="1001" type="move" name="top"/>
    </contour>
  </outline>
</glyph>
<glyph name="f" format="1">
  <advance width="723"/>
  <unicode hex="0066"/>
  <outline>
    <contour>
      <point x="338" y="0" type="curve" smooth="yes"/>
      <point x="398" y="0"/>
      <point x="456" y="38"/>
      <point x="456" y="115" type="curve" smooth="yes"/>
      <point x="456" y="840" type="line"/>
      <point x="598" y="840" type="line" smooth="yes"/>
      <point x="654" y="840"/>
      <point x="681" y="876"/>
      <point x="681" y="915" type="curve" smooth="yes"/>
      <point x="681" y="952"/>
      <point x="654" y="991"/>
      <point x="598" y="991" type="curve" smooth="yes"/>
      <point x="456" y="991" type="line"/>
      <point x="456" y="1084" type="line" smooth="yes"/>
      <point x="456" y="1253"/>
      <point x="496" y="1268"/>
      <point x="585" y="1268" type="curve" smooth="yes"/>
      <point x="670" y="1268" type="line" smooth="yes"/>
      <point x="779" y="1268"/>
      <point x="772" y="1450"/>
      <point x="670" y="1450" type="curve" smooth="yes"/>
      <point x="544" y="1450" type="line" smooth="yes"/>
      <point x="357" y="1450"/>
      <point x="221" y="1353"/>
      <point x="221" y="1107" type="curve" smooth="yes"/>
      <point x="221" y="991" type="line"/>
      <point x="114" y="991" type="line" smooth="yes"/>
      <point x="58" y="992"/>
      <point x="31" y="952"/>
      <point x="31" y="915" type="curve" smooth="yes"/>
      <point x="31" y="876"/>
      <point x="58" y="841"/>
      <point x="114" y="840" type="curve" smooth="yes"/>
      <point x="221" y="840" type="line"/>
      <point x="221" y="115" type="line" smooth="yes"/>
      <point x="221" y="38"/>
      <point x="279" y="0"/>
    </contour>
  </outline>
</glyph>
<glyph name="h" format="1">
  <advance width="1185"/>
  <unicode hex="0068"/>
  <outline>
    <contour>
      <point x="253" y="0" type="curve" smooth="yes"/>
      <point x="313" y="0"/>
      <point x="371" y="38"/>
      <point x="371" y="113" type="curve" smooth="yes"/>
      <point x="371" y="560" type="line" smooth="yes"/>
      <point x="371" y="741"/>
      <point x="497" y="855"/>
      <point x="630" y="855" type="curve" smooth="yes"/>
      <point x="737" y="855"/>
      <point x="823" y="785"/>
      <point x="823" y="633" type="curve" smooth="yes"/>
      <point x="823" y="113" type="line" smooth="yes"/>
      <point x="823" y="38"/>
      <point x="881" y="0"/>
      <point x="939" y="0" type="curve" smooth="yes"/>
      <point x="999" y="0"/>
      <point x="1057" y="38"/>
      <point x="1057" y="113" type="curve" smooth="yes"/>
      <point x="1057" y="631" type="line" smooth="yes"/>
      <point x="1057" y="899"/>
      <point x="882" y="1013"/>
      <point x="695" y="1013" type="curve" smooth="yes"/>
      <point x="540" y="1013"/>
      <point x="431" y="954"/>
      <point x="371" y="870" type="curve"/>
      <point x="371" y="1327" type="line" smooth="yes"/>
      <point x="371" y="1400"/>
      <point x="313" y="1437"/>
      <point x="254" y="1437" type="curve" smooth="yes"/>
      <point x="194" y="1437"/>
      <point x="136" y="1400"/>
      <point x="136" y="1327" type="curve" smooth="yes"/>
      <point x="136" y="113" type="line" smooth="yes"/>
      <point x="136" y="38"/>
      <point x="194" y="0"/>
    </contour>
  </outline>
</glyph>
<glyph name="k" format="1">
  <advance width="1039"/>
  <unicode hex="006B"/>
  <outline>
    <contour>
      <point x="825" y="29" type="line" smooth="yes"/>
      <point x="920" y="-71"/>
      <point x="1077" y="66"/>
      <point x="983" y="165" type="curve" smooth="yes"/>
      <point x="622" y="542" type="line"/>
      <point x="938" y="844" type="line" smooth="yes"/>
      <point x="1021" y="924"/>
      <point x="892" y="1077"/>
      <point x="798" y="985" type="curve" smooth="yes"/>
      <point x="372" y="569" type="line"/>
      <point x="372" y="503" type="line"/>
    </contour>
    <contour>
      <point x="253" y="0" type="curve" smooth="yes"/>
      <point x="312" y="0"/>
      <point x="372" y="40"/>
      <point x="372" y="117" type="curve" smooth="yes"/>
      <point x="372" y="1321" type="line" smooth="yes"/>
      <point x="372" y="1397"/>
      <point x="314" y="1437"/>
      <point x="256" y="1437" type="curve" smooth="yes"/>
      <point x="196" y="1437"/>
      <point x="138" y="1397"/>
      <point x="138" y="1321" type="curve" smooth="yes"/>
      <point x="138" y="117" type="line" smooth="yes"/>
      <point x="138" y="40"/>
      <point x="195" y="0"/>
    </contour>
    <contour>
      <point x="561" y="0" type="move" name="bot"/>
    </contour>
  </outline>
</glyph>
<glyph name="n" format="1">
  <advance width="1185"/>
  <unicode hex="006E"/>
  <outline>
    <contour>
      <point x="253" y="0" type="curve" smooth="yes"/>
      <point x="313" y="0"/>
      <point x="370" y="38"/>
      <point x="370" y="113" type="curve" smooth="yes"/>
      <point x="370" y="550" type="line" smooth="yes"/>
      <point x="370" y="739"/>
      <point x="494" y="855"/>
      <point x="626" y="855" type="curve" smooth="yes"/>
      <point x="733" y="855"/>
      <point x="823" y="785"/>
      <point x="823" y="633" type="curve" smooth="yes"/>
      <point x="823" y="113" type="line" smooth="yes"/>
      <point x="823" y="38"/>
      <point x="881" y="0"/>
      <point x="939" y="0" type="curve" smooth="yes"/>
      <point x="999" y="0"/>
      <point x="1057" y="38"/>
      <point x="1057" y="113" type="curve" smooth="yes"/>
      <point x="1057" y="631" type="line" smooth="yes"/>
      <point x="1057" y="899"/>
      <point x="881" y="1013"/>
      <point x="694" y="1013" type="curve" smooth="yes"/>
      <point x="543" y="1013"/>
      <point x="429" y="956"/>
      <point x="370" y="850" type="curve"/>
      <point x="370" y="895" type="line" smooth="yes"/>
      <point x="370" y="966"/>
      <point x="313" y="1001"/>
      <point x="254" y="1001" type="curve" smooth="yes"/>
      <point x="194" y="1001"/>
      <point x="136" y="964"/>
      <point x="136" y="891" type="curve" smooth="yes"/>
      <point x="136" y="113" type="line" smooth="yes"/>
      <point x="136" y="38"/>
      <point x="194" y="0"/>
    </contour>
    <contour>
      <point x="604" y="0" type="move" name="bot"/>
    </contour>
    <contour>
      <point x="620" y="991" type="move" name="top"/>
    </contour>
  </outline>
</glyph>
<glyph name="q" format="1">
  <advance width="1213"/>
  <unicode hex="0071"/>
  <outline>
    <contour>
      <point x="960" y="-382" type="curve" smooth="yes"/>
      <point x="1019" y="-382"/>
      <point x="1077" y="-345"/>
      <point x="1077" y="-272" type="curve" smooth="yes"/>
      <point x="1077" y="887" type="line" smooth="yes"/>
      <point x="1077" y="961"/>
      <point x="1016" y="1001"/>
      <point x="958" y="1001" type="curve" smooth="yes"/>
      <point x="893" y="1001"/>
      <point x="843" y="970"/>
      <point x="843" y="888" type="curve" smooth="yes"/>
      <point x="843" y="845" type="line"/>
      <point x="774" y="963"/>
      <point x="661" y="1013"/>
      <point x="513" y="1013" type="curve" smooth="yes"/>
      <point x="233" y="1013"/>
      <point x="80" y="768"/>
      <point x="80" y="494" type="curve" smooth="yes"/>
      <point x="80" y="189"/>
      <point x="252" y="-12"/>
      <point x="527" y="-12" type="curve" smooth="yes"/>
      <point x="673" y="-12"/>
      <point x="775" y="39"/>
      <point x="843" y="145" type="curve"/>
      <point x="843" y="-272" type="line" smooth="yes"/>
      <point x="843" y="-345"/>
      <point x="901" y="-382"/>
    </contour>
    <contour>
      <point x="572" y="146" type="curve" smooth="yes"/>
      <point x="374" y="146"/>
      <point x="314" y="332"/>
      <point x="314" y="493" type="curve" smooth="yes"/>
      <point x="314" y="645"/>
      <point x="370" y="855"/>
      <point x="570" y="855" type="curve" smooth="yes"/>
      <point x="777" y="855"/>
      <point x="842" y="723"/>
      <point x="842" y="497" type="curve" smooth="yes"/>
      <point x="842" y="320"/>
      <point x="770" y="146"/>
    </contour>
  </outline>
</glyph>
<glyph name="r" format="1">
  <advance width="763"/>
  <unicode hex="0072"/>
  <outline>
    <contour>
      <point x="253" y="0" type="curve" smooth="yes"/>
      <point x="312" y="0"/>
      <point x="372" y="37"/>
      <point x="372" y="111" type="curve" smooth="yes"/>
      <point x="372" y="559" type="line" smooth="yes"/>
      <point x="372" y="775"/>
      <point x="512" y="802"/>
      <point x="659" y="802" type="curve" smooth="yes"/>
      <point x="756" y="802"/>
      <point x="763" y="997"/>
      <point x="645" y="997" type="curve" smooth="yes"/>
      <point x="517" y="997"/>
      <point x="403" y="900"/>
      <point x="369" y="777" type="curve"/>
      <point x="372" y="902" type="line" smooth="yes"/>
      <point x="375" y="1035"/>
      <point x="137" y="1038"/>
      <point x="137" y="894" type="curve" smooth="yes"/>
      <point x="137" y="111" type="line" smooth="yes"/>
      <point x="137" y="36"/>
      <point x="195" y="0"/>
    </contour>
    <contour>
      <point x="253" y="0" type="move" name="bot"/>
    </contour>
    <contour>
      <point x="358" y="1001" type="move" name="top"/>
    </contour>
  </outline>
</glyph>
<glyph name="u" format="1">
  <advance width="1185"/>
  <unicode hex="0075"/>
  <outline>
    <contour>
      <point x="489" y="-12" type="curve" smooth="yes"/>
      <point x="640" y="-12"/>
      <point x="756" y="45"/>
      <point x="815" y="151" type="curve"/>
      <point x="815" y="106" type="line" smooth="yes"/>
      <point x="815" y="35"/>
      <point x="872" y="0"/>
      <point x="931" y="0" type="curve" smooth="yes"/>
      <point x="991" y="0"/>
      <point x="1049" y="37"/>
      <point x="1049" y="110" type="curve" smooth="yes"/>
      <point x="1049" y="888" type="line" smooth="yes"/>
      <point x="1049" y="963"/>
      <point x="991" y="1001"/>
      <point x="932" y="1001" type="curve" smooth="yes"/>
      <point x="872" y="1001"/>
      <point x="815" y="963"/>
      <point x="815" y="888" type="curve" smooth="yes"/>
      <point x="815" y="451" type="line" smooth="yes"/>
      <point x="815" y="262"/>
      <point x="689" y="146"/>
      <point x="557" y="146" type="curve" smooth="yes"/>
      <point x="450" y="146"/>
      <point x="362" y="216"/>
      <point x="362" y="368" type="curve" smooth="yes"/>
      <point x="362" y="888" type="line" smooth="yes"/>
      <point x="362" y="963"/>
      <point x="304" y="1001"/>
      <point x="246" y="1001" type="curve" smooth="yes"/>
      <point x="186" y="1001"/>
      <point x="128" y="963"/>
      <point x="128" y="888" type="curve" smooth="yes"/>
      <point x="128" y="370" type="line" smooth="yes"/>
      <point x="128" y="102"/>
      <point x="302" y="-12"/>
    </contour>
    <contour>
      <point x="915" y="22" type="move" name="ogonek"/>
    </contour>
    <contour>
      <point x="591" y="991" type="move" name="top"/>
    </contour>
  </outline>
</glyph>
<glyph name="v" format="1">
  <advance width="1069"/>
  <unicode hex="0076"/>
  <outline>
    <contour>
      <point x="538" y="-3" type="curve"/>
      <point x="538" y="230" type="line"/>
      <point x="265" y="930" type="line" smooth="yes"/>
      <point x="212" y="1069"/>
      <point x="11" y="984"/>
      <point x="62" y="857" type="curve" smooth="yes"/>
      <point x="339" y="168" type="line" smooth="yes"/>
      <point x="386" y="51"/>
      <point x="437" y="-3"/>
    </contour>
    <contour>
      <point x="538" y="-3" type="line"/>
      <point x="639" y="-3"/>
      <point x="690" y="51"/>
      <point x="737" y="168" type="curve" smooth="yes"/>
      <point x="1014" y="857" type="line" smooth="yes"/>
      <point x="1065" y="984"/>
      <point x="864" y="1069"/>
      <point x="811" y="930" type="curve" smooth="yes"/>
      <point x="538" y="230" type="line"/>
    </contour>
  </outline>
</glyph>
<glyph name="y" format="1">
  <advance width="1075.247"/>
  <unicode hex="0079"/>
  <outline>
    <contour>
      <point x="490" y="44" type="line"/>
      <point x="611" y="263" type="line"/>
      <point x="283" y="920" type="line" smooth="yes"/>
      <point x="212" y="1062"/>
      <point x="12" y="960"/>
      <point x="78" y="834" type="curve" smooth="yes"/>
    </contour>
    <contour>
      <point x="428" y="-360" type="curve" smooth="yes"/>
      <point x="1033" y="851" type="line" smooth="yes"/>
      <point x="1096" y="976"/>
      <point x="902" y="1079"/>
      <point x="830" y="936" type="curve" smooth="yes"/>
      <point x="231" y="-264" type="line" smooth="yes"/>
      <point x="172" y="-382"/>
      <point x="361" y="-493"/>
    </contour>
    <contour>
      <point x="575" y="1030" type="move" name="top"/>
    </contour>
  </outline>
</glyph>
<glyph name="cent" format="1">
  <advance width="1046"/>
  <unicode hex="00A2"/>
  <outline>
    <contour>
      <point x="575" y="-265" type="curve" smooth="yes"/>
      <point x="610" y="-265"/>
      <point x="642" y="-243"/>
      <point x="642" y="-198" type="curve" smooth="yes"/>
      <point x="642" y="75" type="line"/>
      <point x="507" y="75" type="line"/>
      <point x="507" y="-198" type="line" smooth="yes"/>
      <point x="507" y="-242"/>
      <point x="540" y="-265"/>
    </contour>
    <contour>
      <point x="507" y="948" type="line"/>
      <point x="642" y="948" type="line"/>
      <point x="642" y="1221" type="line" smooth="yes"/>
      <point x="642" y="1266"/>
      <point x="610" y="1288"/>
      <point x="575" y="1288" type="curve" smooth="yes"/>
      <point x="540" y="1288"/>
      <point x="507" y="1265"/>
      <point x="507" y="1221" type="curve" smooth="yes"/>
    </contour>
    <component base="c"/>
  </outline>
</glyph>
<glyph name="section" format="1">
  <advance width="1230"/>
  <unicode hex="00A7"/>
  <outline>
    <contour>
      <point x="576" y="-33" type="curve" smooth="yes"/>
      <point x="814" y="-33"/>
      <point x="993" y="72"/>
      <point x="993" y="277" type="curve" smooth="yes"/>
      <point x="993" y="405"/>
      <point x="906" y="481"/>
      <point x="789" y="526" type="curve"/>
      <point x="913" y="577"/>
      <point x="1010" y="667"/>
      <point x="1010" y="792" type="curve" smooth="yes"/>
      <point x="1010" y="1077"/>
      <point x="511" y="1047"/>
      <point x="511" y="1229" type="curve" smooth="yes"/>
      <point x="511" y="1328"/>
      <point x="618" y="1353"/>
      <point x="704" y="1353" type="curve" smooth="yes"/>
      <point x="763" y="1353"/>
      <point x="824" y="1338"/>
      <point x="884" y="1323" type="curve"/>
      <point x="910.667" y="1309.67"/>
      <point x="977" y="1346.88"/>
      <point x="977" y="1401" type="curve" smooth="yes"/>
      <point x="977" y="1432"/>
      <point x="960" y="1463"/>
      <point x="917" y="1474" type="curve" smooth="yes"/>
      <point x="832" y="1495"/>
      <point x="745" y="1512"/>
      <point x="654" y="1512" type="curve" smooth="yes"/>
      <point x="414" y="1512"/>
      <point x="246" y="1427"/>
      <point x="246" y="1224" type="curve" smooth="yes"/>
      <point x="246" y="1115"/>
      <point x="325.154" y="1057.49"/>
      <point x="433" y="982" type="curve"/>
      <point x="313" y="942"/>
      <point x="209" y="842"/>
      <point x="209" y="727" type="curve" smooth="yes"/>
      <point x="209" y="412"/>
      <point x="732" y="477"/>
      <point x="732" y="287" type="curve" smooth="yes"/>
      <point x="732" y="171"/>
      <point x="621" y="126"/>
      <point x="517" y="126" type="curve" smooth="yes"/>
      <point x="424" y="126"/>
      <point x="355" y="138"/>
      <point x="294" y="159" type="curve" smooth="yes"/>
      <point x="246.889" y="176.667"/>
      <point x="192" y="131.182"/>
      <point x="192" y="83" type="curve" smooth="yes"/>
      <point x="192" y="52"/>
      <point x="209" y="25"/>
      <point x="252" y="12" type="curve" smooth="yes"/>
      <point x="356" y="-19"/>
      <point x="465" y="-33"/>
    </contour>
    <contour>
      <point x="629" y="592" type="curve"/>
      <point x="544" y="629"/>
      <point x="427" y="670"/>
      <point x="427" y="756" type="curve" smooth="yes"/>
      <point x="427" y="836"/>
      <point x="496" y="877"/>
      <point x="576" y="925" type="curve"/>
      <point x="674" y="883"/>
      <point x="798" y="853"/>
      <point x="798" y="763" type="curve" smooth="yes"/>
      <point x="798" y="682"/>
      <point x="711" y="637"/>
    </contour>
  </outline>
</glyph>
<glyph name="guillemetleft" format="1">
  <advance width="1195"/>
  <unicode hex="00AB"/>
  <outline>
    <contour>
      <point x="479" y="64" type="curve" smooth="yes"/>
      <point x="523" y="64"/>
      <point x="563" y="97"/>
      <point x="563" y="140" type="curve" smooth="yes"/>
      <point x="563" y="151"/>
      <point x="561" y="162"/>
      <point x="556" y="172" type="curve" smooth="yes"/>
      <point x="389" y="537" type="line"/>
      <point x="556" y="901" type="line" smooth="yes"/>
      <point x="561" y="911"/>
      <point x="563" y="922"/>
      <point x="563" y="933" type="curve" smooth="yes"/>
      <point x="563" y="976"/>
      <point x="523" y="1009"/>
      <point x="479" y="1009" type="curve" smooth="yes"/>
      <point x="446" y="1009"/>
      <point x="412" y="992"/>
      <point x="385" y="947" type="curve"/>
      <point x="151" y="537" type="line"/>
      <point x="385" y="126" type="line" smooth="yes"/>
      <point x="410" y="81"/>
      <point x="447" y="64"/>
    </contour>
    <contour>
      <point x="920" y="64" type="curve" smooth="yes"/>
      <point x="964" y="64"/>
      <point x="1004" y="97"/>
      <point x="1004" y="140" type="curve" smooth="yes"/>
      <point x="1004" y="151"/>
      <point x="1002" y="162"/>
      <point x="997" y="172" type="curve" smooth="yes"/>
      <point x="829" y="537" type="line"/>
      <point x="997" y="901" type="line" smooth="yes"/>
      <point x="1002" y="911"/>
      <point x="1004" y="922"/>
      <point x="1004" y="933" type="curve" smooth="yes"/>
      <point x="1004" y="976"/>
      <point x="964" y="1009"/>
      <point x="920" y="1009" type="curve" smooth="yes"/>
      <point x="887" y="1009"/>
      <point x="852" y="992"/>
      <point x="825" y="947" type="curve"/>
      <point x="591" y="537" type="line"/>
      <point x="825" y="126" type="line"/>
      <point x="852" y="81"/>
      <point x="887" y="64"/>
    </contour>
  </outline>
</glyph>
<glyph name="ae" format="1">
  <advance width="1734"/>
  <unicode hex="00E6"/>
  <outline>
    <contour>
      <point x="426" y="-24" type="curve" smooth="yes"/>
      <point x="594" y="-24"/>
      <point x="752" y="37"/>
      <point x="826" y="180" type="curve"/>
      <point x="898" y="56"/>
      <point x="1016" y="-24"/>
      <point x="1180" y="-24" type="curve" smooth="yes"/>
      <point x="1387" y="-24"/>
      <point x="1594" y="60"/>
      <point x="1594" y="168" type="curve" smooth="yes"/>
      <point x="1594" y="204"/>
      <point x="1570" y="236"/>
      <point x="1535" y="236" type="curve" smooth="yes"/>
      <point x="1524" y="236"/>
      <point x="1513" y="233"/>
      <point x="1500" y="226" type="curve" smooth="yes"/>
      <point x="1428" y="189"/>
      <point x="1336" y="142"/>
      <point x="1228" y="142" type="curve" smooth="yes"/>
      <point x="1028" y="142"/>
      <point x="958" y="277"/>
      <point x="955" y="457" type="curve"/>
      <point x="1566" y="457" type="line" smooth="yes"/>
      <point x="1614" y="457"/>
      <point x="1637" y="493"/>
      <point x="1637" y="529" type="curve"/>
      <point x="1632" y="815"/>
      <point x="1493" y="1027"/>
      <point x="1195" y="1027" type="curve" smooth="yes"/>
      <point x="1050" y="1027"/>
      <point x="937" y="963"/>
      <point x="860" y="863" type="curve"/>
      <point x="805" y="976"/>
      <point x="696" y="1026"/>
      <point x="541" y="1026" type="curve" smooth="yes"/>
      <point x="350" y="1026"/>
      <point x="212" y="980"/>
      <point x="148" y="884" type="curve" smooth="yes"/>
      <point x="139" y="871"/>
      <point x="134" y="858"/>
      <point x="134" y="845" type="curve" smooth="yes"/>
      <point x="134" y="809"/>
      <point x="164" y="775"/>
      <point x="203" y="775" type="curve" smooth="yes"/>
      <point x="214" y="775"/>
      <point x="224" y="777"/>
      <point x="233" y="782" type="curve" smooth="yes"/>
      <point x="312" y="822"/>
      <point x="395" y="858"/>
      <point x="528" y="858" type="curve" smooth="yes"/>
      <point x="648" y="858"/>
      <point x="726" y="814"/>
      <point x="726" y="679" type="curve" smooth="yes"/>
      <point x="726" y="611" type="line"/>
      <point x="697" y="612"/>
      <point x="652" y="613"/>
      <point x="625" y="613" type="curve" smooth="yes"/>
      <point x="281" y="613"/>
      <point x="62" y="521"/>
      <point x="62" y="275" type="curve" smooth="yes"/>
      <point x="62" y="85"/>
      <point x="210" y="-24"/>
    </contour>
    <contour>
      <point x="472" y="119" type="curve"/>
      <point x="365" y="122"/>
      <point x="281" y="175"/>
      <point x="281" y="289" type="curve" smooth="yes"/>
      <point x="281" y="483"/>
      <point x="542" y="480"/>
      <point x="725" y="480" type="curve"/>
      <point x="725" y="400" type="line"/>
      <point x="720" y="216"/>
      <point x="614" y="122"/>
    </contour>
    <contour>
      <point x="956" y="588" type="line"/>
      <point x="967" y="751"/>
      <point x="1049" y="878"/>
      <point x="1197" y="878" type="curve" smooth="yes"/>
      <point x="1345" y="878"/>
      <point x="1418" y="764"/>
      <point x="1429" y="588" type="curve"/>
    </contour>
    <contour>
      <point x="871" y="1013" type="move" name="top"/>
    </contour>
  </outline>
</glyph>
<glyph name="eth" format="1">
  <advance width="1230"/>
  <unicode hex="00F0"/>
  <outline>
    <contour>
      <point x="590" y="-34" type="curve" smooth="yes"/>
      <point x="1001" y="-34"/>
      <point x="1148" y="270"/>
      <point x="1148" y="636" type="curve" smooth="yes"/>
      <point x="1148" y="768"/>
      <point x="1131" y="915"/>
      <point x="1094" y="1059" type="curve"/>
      <point x="1225" y="1059" type="line" smooth="yes"/>
      <point x="1272" y="1059"/>
      <point x="1294" y="1093"/>
      <point x="1294" y="1128" type="curve" smooth="yes"/>
      <point x="1294" y="1163"/>
      <point x="1272" y="1197"/>
      <point x="1225" y="1197" type="curve" smooth="yes"/>
      <point x="1046" y="1197" type="line"/>
      <point x="960" y="1401"/>
      <point x="860" y="1554"/>
      <point x="761" y="1554" type="curve" smooth="yes"/>
      <point x="678.5" y="1554"/>
      <point x="618" y="1467"/>
      <point x="673" y="1390" type="curve" smooth="yes"/>
      <point x="710" y="1337"/>
      <point x="768" y="1257"/>
      <point x="793" y="1197" type="curve"/>
      <point x="611" y="1197" type="line" smooth="yes"/>
      <point x="564" y="1197"/>
      <point x="541" y="1162"/>
      <point x="541" y="1127" type="curve" smooth="yes"/>
      <point x="541" y="1092"/>
      <point x="564" y="1059"/>
      <point x="611" y="1059" type="curve" smooth="yes"/>
      <point x="841" y="1059" type="line"/>
      <point x="879" y="970"/>
      <point x="897" y="790"/>
      <point x="887" y="714" type="curve"/>
      <point x="818" y="845"/>
      <point x="684" y="904"/>
      <point x="533" y="904" type="curve" smooth="yes"/>
      <point x="260" y="904"/>
      <point x="82" y="727"/>
      <point x="82" y="451" type="curve" smooth="yes"/>
      <point x="82" y="168"/>
      <point x="275" y="-34"/>
    </contour>
    <contour>
      <point x="599" y="149" type="curve" smooth="yes"/>
      <point x="427" y="149"/>
      <point x="331" y="264"/>
      <point x="331" y="441" type="curve" smooth="yes"/>
      <point x="331" y="608"/>
      <point x="407" y="742"/>
      <point x="580" y="742" type="curve" smooth="yes"/>
      <point x="764" y="742"/>
      <point x="865" y="616"/>
      <point x="865" y="435" type="curve" smooth="yes"/>
      <point x="865" y="273"/>
      <point x="755" y="149"/>
    </contour>
  </outline>
</glyph>
<glyph name="Eng" format="1">
  <advance width="1557"/>
  <unicode hex="014A"/>
  <outline>
    <contour>
      <point x="635" y="-433" type="curve" smooth="yes"/>
      <point x="1103" y="-548"/>
      <point x="1389" y="-457"/>
      <point x="1389" y="49" type="curve"/>
      <point x="1389" y="350" type="line"/>
      <point x="1154" y="353" type="line"/>
      <point x="1154" y="-7" type="line" smooth="yes"/>
      <point x="1154" y="-302"/>
      <point x="1012" y="-342"/>
      <point x="673" y="-257" type="curve" smooth="yes"/>
      <point x="541" y="-224"/>
      <point x="485" y="-396"/>
    </contour>
    <component base="N"/>
  </outline>
</glyph>
<glyph name="eng" format="1">
  <advance width="1195"/>
  <unicode hex="014B"/>
  <outline>
    <contour>
      <point x="397" y="-326" type="curve" smooth="yes"/>
      <point x="775" y="-440"/>
      <point x="1058" y="-376"/>
      <point x="1058" y="130" type="curve"/>
      <point x="1058" y="353" type="line"/>
      <point x="824" y="353" type="line"/>
      <point x="824" y="94" type="line" smooth="yes"/>
      <point x="824" y="-171"/>
      <point x="741" y="-250"/>
      <point x="427" y="-154" type="curve" smooth="yes"/>
      <point x="318" y="-121"/>
      <point x="267" y="-287"/>
    </contour>
    <component base="n"/>
    <component base="n"/>
  </outline>
</glyph>
<glyph name="quotesinglbase" format="1">
  <advance width="615"/>
  <unicode hex="201A"/>
  <outline>
    <contour>
      <point x="160" y="-326" type="curve" smooth="yes"/>
      <point x="242" y="-326" type="line" smooth="yes"/>
      <point x="271" y="-326"/>
      <point x="287" y="-315"/>
      <point x="298" y="-283" type="curve" smooth="yes"/>
      <point x="479" y="187" type="line" smooth="yes"/>
      <point x="484" y="201"/>
      <point x="487" y="243"/>
      <point x="445" y="243" type="curve" smooth="yes"/>
      <point x="293" y="243" type="line" smooth="yes"/>
      <point x="261" y="243"/>
      <point x="228" y="234"/>
      <point x="220" y="187" type="curve" smooth="yes"/>
      <point x="136" y="-283" type="line" smooth="yes"/>
      <point x="134" y="-295"/>
      <point x="132" y="-326"/>
    </contour>
  </outline>
</glyph>
<glyph name="quotedblright" format="1">
  <advance width="1161"/>
  <unicode hex="201D"/>
  <outline>
    <contour>
      <point x="227" y="869" type="curve"/>
      <point x="309" y="869" type="line"/>
      <point x="338" y="868"/>
      <point x="354" y="880"/>
      <point x="365" y="912" type="curve" smooth="yes"/>
      <point x="546" y="1382" type="line" smooth="yes"/>
      <point x="551" y="1396"/>
      <point x="554" y="1435"/>
      <point x="512" y="1438" type="curve"/>
      <point x="360" y="1438" type="line"/>
      <point x="328" y="1437"/>
      <point x="295" y="1429"/>
      <point x="287" y="1382" type="curve" smooth="yes"/>
      <point x="203" y="912" type="line" smooth="yes"/>
      <point x="201" y="900"/>
      <point x="199" y="870"/>
    </contour>
    <contour>
      <point x="653" y="869" type="curve"/>
      <point x="735" y="869" type="line"/>
      <point x="764" y="868"/>
      <point x="780" y="880"/>
      <point x="791" y="912" type="curve" smooth="yes"/>
      <point x="972" y="1382" type="line" smooth="yes"/>
      <point x="977" y="1396"/>
      <point x="980" y="1435"/>
      <point x="938" y="1438" type="curve"/>
      <point x="786" y="1438" type="line"/>
      <point x="754" y="1437"/>
      <point x="721" y="1429"/>
      <point x="713" y="1382" type="curve" smooth="yes"/>
      <point x="629" y="912" type="line" smooth="yes"/>
      <point x="627" y="900"/>
      <point x="625" y="870"/>
    </contour>
  </outline>
</glyph>
<glyph name="quotedblbase" format="1">
  <advance width="1161"/>
  <unicode hex="201E"/>
  <outline>
    <contour>
      <point x="235" y="-270" type="curve"/>
      <point x="317" y="-270" type="line"/>
      <point x="346" y="-271"/>
      <point x="362" y="-259"/>
      <point x="373" y="-227" type="curve" smooth="yes"/>
      <point x="554" y="243" type="line" smooth="yes"/>
      <point x="559" y="257"/>
      <point x="562" y="296"/>
      <point x="520" y="299" type="curve"/>
      <point x="368" y="299" type="line"/>
      <point x="336" y="298"/>
      <point x="303" y="290"/>
      <point x="295" y="243" type="curve" smooth="yes"/>
      <point x="211" y="-227" type="line" smooth="yes"/>
      <point x="209" y="-239"/>
      <point x="207" y="-269"/>
    </contour>
    <contour>
      <point x="661" y="-270" type="curve"/>
      <point x="743" y="-270" type="line"/>
      <point x="772" y="-271"/>
      <point x="788" y="-259"/>
      <point x="799" y="-227" type="curve" smooth="yes"/>
      <point x="980" y="243" type="line" smooth="yes"/>
      <point x="985" y="257"/>
      <point x="988" y="296"/>
      <point x="946" y="299" type="curve"/>
      <point x="794" y="299" type="line"/>
      <point x="762" y="298"/>
      <point x="729" y="290"/>
      <point x="721" y="243" type="curve" smooth="yes"/>
      <point x="637" y="-227" type="line" smooth="yes"/>
      <point x="635" y="-239"/>
      <point x="633" y="-269"/>
    </contour>
  </outline>
</glyph>
<glyph name="fi" format="1">
  <advance width="1227"/>
  <unicode hex="FB01"/>
  <outline>
    <contour>
      <point x="327" y="1" type="curve" smooth="yes"/>
      <point x="386" y="1"/>
      <point x="444" y="39"/>
      <point x="444" y="116" type="curve" smooth="yes"/>
      <point x="444" y="845" type="line"/>
      <point x="854" y="845" type="line"/>
      <point x="854" y="116" type="line" smooth="yes"/>
      <point x="854" y="38"/>
      <point x="911" y="0"/>
      <point x="970" y="0" type="curve" smooth="yes"/>
      <point x="1029" y="0"/>
      <point x="1089" y="40"/>
      <point x="1089" y="116" type="curve" smooth="yes"/>
      <point x="1089" y="883" type="line" smooth="yes"/>
      <point x="1089" y="962"/>
      <point x="1028" y="999"/>
      <point x="968" y="999" type="curve" smooth="yes"/>
      <point x="444" y="999" type="line"/>
      <point x="444" y="1029" type="line" smooth="yes"/>
      <point x="444" y="1237"/>
      <point x="451" y="1283"/>
      <point x="566" y="1283" type="curve" smooth="yes"/>
      <point x="595" y="1283"/>
      <point x="621" y="1276"/>
      <point x="653" y="1276" type="curve" smooth="yes"/>
      <point x="700" y="1276"/>
      <point x="725" y="1317"/>
      <point x="725" y="1358" type="curve" smooth="yes"/>
      <point x="725" y="1392"/>
      <point x="707" y="1426"/>
      <point x="668" y="1437" type="curve" smooth="yes"/>
      <point x="614" y="1451"/>
      <point x="559" y="1458"/>
      <point x="503" y="1458" type="curve" smooth="yes"/>
      <point x="316" y="1458"/>
      <point x="210" y="1361"/>
      <point x="210" y="1089" type="curve" smooth="yes"/>
      <point x="210" y="999" type="line"/>
      <point x="99" y="999" type="line" smooth="yes"/>
      <point x="43" y="999"/>
      <point x="16" y="961"/>
      <point x="16" y="922" type="curve" smooth="yes"/>
      <point x="16" y="883"/>
      <point x="44" y="845"/>
      <point x="99" y="845" type="curve" smooth="yes"/>
      <point x="210" y="845" type="line"/>
      <point x="210" y="116" type="line" smooth="yes"/>
      <point x="210" y="39"/>
      <point x="268" y="1"/>
    </contour>
    <contour>
      <point x="971" y="1221" type="curve" smooth="yes"/>
      <point x="1052" y="1221"/>
      <point x="1110" y="1268"/>
      <point x="1110" y="1333" type="curve" smooth="yes"/>
      <point x="1110" y="1398"/>
      <point x="1052" y="1445"/>
      <point x="971" y="1445" type="curve" smooth="yes"/>
      <point x="891" y="1445"/>
      <point x="832" y="1397"/>
      <point x="832" y="1333" type="curve" smooth="yes"/>
      <point x="832" y="1269"/>
      <point x="891" y="1221"/>
    </contour>
  </outline>
</glyph>
